<svg width="143" height="71" viewBox="0 0 143 71" fill="none" xmlns="http://www.w3.org/2000/svg">
<path d="M24.7134 29.7595H17.8956V43.4377H14.8276V13.6098H17.8956V26.9898H24.7134L34.8123 13.6098H38.2212L27.1423 28.0976L38.8603 43.4377H35.2384L24.7134 29.7595Z" fill="white"/>
<path d="M17.8925 13.8752V2.87524H14.8425V13.8752H17.8925Z" fill="white"/>
<path d="M62.8893 35.4694H46.271L42.6916 43.4377H39.4105L53.0461 13.6098H56.1568L69.7923 43.4377H66.4687L62.8893 35.4694ZM61.7388 32.9127L54.5801 16.8909L47.4215 32.9127H61.7388Z" fill="white"/>
<path d="M99.7902 47.0718V52.7605H102.608V47.0718H99.7902Z" fill="white"/>
<path d="M102.604 38.2699V47.0718H99.7849V40.8189H74.8194L74.7786 47.0718H71.9592L72.0001 38.2699H73.4302C75.3098 38.1637 76.6173 36.7167 77.3528 33.9288C78.0882 31.1143 78.5377 27.1316 78.7011 21.9806L79.028 12.9398H98.314V38.2699H102.604ZM81.3979 22.2594C81.2617 26.5076 80.9212 30.0124 80.3764 32.7738C79.8588 35.5086 78.9735 37.3406 77.7205 38.2699H95.3312V15.4888H81.6431L81.3979 22.2594Z" fill="white"/>
<path d="M119.692 13.6098C123.498 13.6098 126.481 14.5189 128.64 16.337C130.799 18.155 131.879 20.6549 131.879 23.8365C131.879 27.0182 130.799 29.518 128.64 31.3361C126.481 33.1258 123.498 34.0206 119.692 34.0206H111.681V43.4377H108.528V13.6098H119.692ZM119.607 31.2509C122.561 31.2509 124.819 30.6117 126.382 29.3334C127.944 28.0266 128.725 26.1943 128.725 23.8365C128.725 21.4219 127.944 19.5754 126.382 18.2971C124.819 16.9903 122.561 16.337 119.607 16.337H111.681V31.2509H119.607Z" fill="white"/>
<path d="M17.8873 2.00055H1.29248V53.1985H90.6258" stroke="white" stroke-width="2.58253"/>
<path d="M99.7867 53.1979H141.292V1.99996H62.1814H34.7239H30.4787" stroke="white" stroke-width="2.58253"/>
<path d="M4.48711 66.76H1.49137L0.834664 68.2136H0.428838L2.80477 63.0486H3.18108L5.55701 68.2136H5.15119L4.48711 66.76ZM4.34691 66.4427L2.98924 63.4618L1.63894 66.4427H4.34691ZM11.9646 63.388H9.14599V68.2136H8.76967V63.0486H11.9646V63.388ZM18.6671 67.8742V68.2136H15.1032V63.0486H18.5564V63.388H15.4795V65.4245H18.2318V65.7565H15.4795V67.8742H18.6671ZM26.2695 63.0486V68.2136H25.8932V65.7565H22.44V68.2136H22.0637V63.0486H22.44V65.4245H25.8932V63.0486H26.2695ZM33.5099 63.388H31.6505V68.2136H31.2742V63.388H29.4148V63.0486H33.5099V63.388ZM38.7962 68.2505C38.2896 68.2505 37.8321 68.1374 37.4238 67.9111C37.0204 67.6848 36.7007 67.3725 36.4646 66.974C36.2334 66.5756 36.1178 66.1279 36.1178 65.6311C36.1178 65.1343 36.2334 64.6866 36.4646 64.2882C36.7007 63.8897 37.0204 63.5774 37.4238 63.3511C37.8321 63.1248 38.2896 63.0117 38.7962 63.0117C39.1701 63.0117 39.5144 63.0732 39.8293 63.1961C40.1441 63.3142 40.4122 63.4913 40.6335 63.7274L40.3974 63.9709C39.9842 63.5626 39.4554 63.3585 38.811 63.3585C38.3781 63.3585 37.9846 63.4568 37.6304 63.6536C37.2762 63.8504 36.9983 64.1234 36.7966 64.4726C36.5949 64.817 36.4941 65.2031 36.4941 65.6311C36.4941 66.0591 36.5949 66.4477 36.7966 66.7969C36.9983 67.1413 37.2762 67.4118 37.6304 67.6086C37.9846 67.8053 38.3781 67.9037 38.811 67.9037C39.4505 67.9037 39.9793 67.6971 40.3974 67.2839L40.6335 67.5274C40.4122 67.7635 40.1416 67.9431 39.8219 68.066C39.5071 68.189 39.1652 68.2505 38.7962 68.2505ZM47.1642 63.388H45.3048V68.2136H44.9285V63.388H43.0691V63.0486H47.1642V63.388ZM53.2162 65.5573C53.5999 65.6213 53.8876 65.7614 54.0795 65.9779C54.2762 66.1943 54.3746 66.4821 54.3746 66.8412C54.3746 67.2839 54.2197 67.6233 53.9098 67.8594C53.5999 68.0956 53.1399 68.2136 52.53 68.2136H50.309V63.0486H52.3898C52.9309 63.0486 53.3515 63.1617 53.6515 63.388C53.9565 63.6143 54.109 63.9389 54.109 64.362C54.109 64.662 54.0303 64.9129 53.8729 65.1146C53.7155 65.3163 53.4966 65.4638 53.2162 65.5573ZM50.6853 65.4392H52.3824C52.8153 65.4392 53.1473 65.3507 53.3785 65.1736C53.6097 64.9965 53.7253 64.7407 53.7253 64.4062C53.7253 64.0668 53.6097 63.8086 53.3785 63.6315C53.1473 63.4544 52.8153 63.3658 52.3824 63.3658H50.6853V65.4392ZM52.5373 67.8963C53.5113 67.8963 53.9983 67.5372 53.9983 66.8191C53.9983 66.4501 53.8753 66.1796 53.6294 66.0074C53.3834 65.8352 53.0194 65.7491 52.5373 65.7491H50.6853V67.8963H52.5373ZM60.1964 68.2505C59.6897 68.2505 59.2323 68.1374 58.824 67.9111C58.4157 67.6799 58.0935 67.3651 57.8574 66.9666C57.6262 66.5682 57.5106 66.123 57.5106 65.6311C57.5106 65.1392 57.6262 64.694 57.8574 64.2955C58.0935 63.8971 58.4157 63.5847 58.824 63.3585C59.2323 63.1273 59.6897 63.0117 60.1964 63.0117C60.7031 63.0117 61.1605 63.1248 61.5688 63.3511C61.9771 63.5774 62.2969 63.8897 62.5281 64.2882C62.7642 64.6866 62.8822 65.1343 62.8822 65.6311C62.8822 66.1279 62.7642 66.5756 62.5281 66.974C62.2969 67.3725 61.9771 67.6848 61.5688 67.9111C61.1605 68.1374 60.7031 68.2505 60.1964 68.2505ZM60.1964 67.9037C60.6293 67.9037 61.0204 67.8053 61.3696 67.6086C61.7189 67.4118 61.9943 67.1413 62.196 66.7969C62.3977 66.4477 62.4985 66.0591 62.4985 65.6311C62.4985 65.2031 62.3977 64.817 62.196 64.4726C61.9943 64.1234 61.7189 63.8504 61.3696 63.6536C61.0204 63.4568 60.6293 63.3585 60.1964 63.3585C59.7635 63.3585 59.37 63.4568 59.0158 63.6536C58.6666 63.8504 58.3911 64.1234 58.1894 64.4726C57.9877 64.817 57.8869 65.2031 57.8869 65.6311C57.8869 66.0591 57.9877 66.4477 58.1894 66.7969C58.3911 67.1413 58.6666 67.4118 59.0158 67.6086C59.37 67.8053 59.7635 67.9037 60.1964 67.9037ZM76.3351 63.0486C76.9844 63.0486 77.4936 63.2035 77.8625 63.5134C78.2314 63.8184 78.4159 64.2439 78.4159 64.7899C78.4159 65.331 78.2314 65.7565 77.8625 66.0664C77.4936 66.3714 76.9844 66.5239 76.3351 66.5239H74.8594V68.2136H74.4831V63.0486H76.3351ZM76.3351 66.1845C76.886 66.1845 77.3066 66.064 77.5969 65.8229C77.8871 65.5819 78.0322 65.2376 78.0322 64.7899C78.0322 64.3423 77.8871 63.9979 77.5969 63.7569C77.3066 63.511 76.886 63.388 76.3351 63.388H74.8594V66.1845H76.3351ZM85.3245 67.8742V68.2136H81.7606V63.0486H85.2138V63.388H82.1369V65.4245H84.8891V65.7565H82.1369V67.8742H85.3245ZM90.3369 65.7639H89.0973V68.2136H88.721V63.0486H89.0973V65.4245H90.3443L92.1964 63.0486H92.6169L90.6395 65.5647L92.7498 68.2136H92.307L90.3369 65.7639ZM97.6632 63.0486C98.3125 63.0486 98.8217 63.2035 99.1906 63.5134C99.5595 63.8184 99.744 64.2439 99.744 64.7899C99.744 65.331 99.5595 65.7565 99.1906 66.0664C98.8217 66.3714 98.3125 66.5239 97.6632 66.5239H96.1875V68.2136H95.8112V63.0486H97.6632ZM97.6632 66.1845C98.2141 66.1845 98.6347 66.064 98.925 65.8229C99.2152 65.5819 99.3603 65.2376 99.3603 64.7899C99.3603 64.3423 99.2152 63.9979 98.925 63.7569C98.6347 63.511 98.2141 63.388 97.6632 63.388H96.1875V66.1845H97.6632ZM106.884 63.0486L104.501 67.461C104.348 67.7463 104.166 67.9578 103.955 68.0956C103.748 68.2333 103.527 68.3022 103.291 68.3022C103.109 68.3022 102.912 68.2579 102.7 68.1694L102.818 67.8594C102.986 67.9283 103.143 67.9627 103.291 67.9627C103.64 67.9627 103.93 67.7684 104.161 67.3798L104.338 67.0773L102.221 63.0486H102.634L104.545 66.7231L106.493 63.0486H106.884ZM113.281 63.388H111.422V68.2136H111.045V63.388H109.186V63.0486H113.281V63.388ZM116.426 63.0486H116.802V67.5791L120.322 63.0486H120.654V68.2136H120.278V63.6905L116.758 68.2136H116.426V63.0486ZM128.86 63.0486V68.2136H128.484V65.7565H125.031V68.2136H124.655V63.0486H125.031V65.4245H128.484V63.0486H128.86ZM136.057 63.388H133.238V68.2136H132.862V63.0486H136.057V63.388ZM141.498 66.76H138.503L137.846 68.2136H137.44L139.816 63.0486H140.192L142.568 68.2136H142.162L141.498 66.76ZM141.358 66.4427L140 63.4618L138.65 66.4427H141.358Z" fill="white"/>
</svg>
