<svg width="144" height="71" viewBox="0 0 144 71" fill="none" xmlns="http://www.w3.org/2000/svg">
<path d="M25.4209 29.7593H18.6031V43.4375H15.5351V13.6097H18.6031V26.9896H25.4209L35.5198 13.6097H38.9287L27.8498 28.0975L39.5679 43.4375H35.9459L25.4209 29.7593Z" fill="#D25F15"/>
<path d="M18.6 13.875V2.875H15.55V13.875H18.6Z" fill="#D25F15"/>
<path d="M63.5968 35.4692H46.9785L43.3991 43.4375H40.1181L53.7537 13.6097H56.8643L70.4999 43.4375H67.1762L63.5968 35.4692ZM62.4463 32.9125L55.2877 16.8907L48.129 32.9125H62.4463Z" fill="#D25F15"/>
<path d="M100.498 47.0713V52.7599H103.315V47.0713H100.498Z" fill="#D25F15"/>
<path d="M103.312 38.2696V47.0714H100.492V40.8185H75.527L75.4861 47.0714H72.6667L72.7076 38.2696H74.1377C76.0173 38.1634 77.3248 36.7163 78.0603 33.9284C78.7958 31.1139 79.2452 27.1312 79.4087 21.9802L79.7355 12.9395H99.0215V38.2696H103.312ZM82.1054 22.259C81.9692 26.5073 81.6287 30.0121 81.0839 32.7734C80.5664 35.5082 79.6811 37.3403 78.428 38.2696H96.0387V15.4884H82.3506L82.1054 22.259Z" fill="#D25F15"/>
<path d="M120.399 13.6097C124.206 13.6097 127.189 14.5187 129.348 16.3368C131.507 18.1548 132.586 20.6547 132.586 23.8363C132.586 27.018 131.507 29.5178 129.348 31.3359C127.189 33.1256 124.206 34.0204 120.399 34.0204H112.388V43.4375H109.235V13.6097H120.399ZM120.314 31.2507C123.269 31.2507 125.527 30.6115 127.089 29.3332C128.652 28.0264 129.433 26.1942 129.433 23.8363C129.433 21.4217 128.652 19.5752 127.089 18.2969C125.527 16.9901 123.269 16.3368 120.314 16.3368H112.388V31.2507H120.314Z" fill="#D25F15"/>
<path d="M18.5948 2.00098H2V53.1989H91.3333" stroke="#D25F15" stroke-width="2.58253"/>
<path d="M100.494 53.1982H142V2.00033H62.8889H35.4314H31.1862" stroke="#D25F15" stroke-width="2.58253"/>
<path d="M5.19462 66.7603H2.19889L1.54218 68.2139H1.13636L3.51229 63.0488H3.8886L6.26453 68.2139H5.85871L5.19462 66.7603ZM5.05443 66.443L3.69676 63.462L2.34646 66.443H5.05443ZM12.6722 63.3882H9.8535V68.2139H9.47719V63.0488H12.6722V63.3882ZM19.3746 67.8744V68.2139H15.8107V63.0488H19.264V63.3882H16.1871V65.4247H18.9393V65.7568H16.1871V67.8744H19.3746ZM26.977 63.0488V68.2139H26.6007V65.7568H23.1475V68.2139H22.7712V63.0488H23.1475V65.4247H26.6007V63.0488H26.977ZM34.2175 63.3882H32.358V68.2139H31.9817V63.3882H30.1223V63.0488H34.2175V63.3882ZM39.5038 68.2508C38.9971 68.2508 38.5396 68.1376 38.1313 67.9113C37.728 67.6851 37.4082 67.3727 37.1721 66.9743C36.9409 66.5758 36.8253 66.1282 36.8253 65.6313C36.8253 65.1345 36.9409 64.6869 37.1721 64.2884C37.4082 63.89 37.728 63.5776 38.1313 63.3513C38.5396 63.125 38.9971 63.0119 39.5038 63.0119C39.8776 63.0119 40.222 63.0734 40.5368 63.1964C40.8516 63.3144 41.1197 63.4915 41.3411 63.7276L41.1049 63.9711C40.6917 63.5628 40.1629 63.3587 39.5185 63.3587C39.0856 63.3587 38.6921 63.4571 38.3379 63.6538C37.9838 63.8506 37.7058 64.1236 37.5041 64.4729C37.3025 64.8172 37.2016 65.2034 37.2016 65.6313C37.2016 66.0593 37.3025 66.4479 37.5041 66.7972C37.7058 67.1415 37.9838 67.4121 38.3379 67.6088C38.6921 67.8056 39.0856 67.904 39.5185 67.904C40.158 67.904 40.6868 67.6974 41.1049 67.2842L41.3411 67.5277C41.1197 67.7638 40.8491 67.9433 40.5294 68.0663C40.2146 68.1893 39.8727 68.2508 39.5038 68.2508ZM47.8717 63.3882H46.0123V68.2139H45.636V63.3882H43.7766V63.0488H47.8717V63.3882ZM53.9237 65.5575C54.3074 65.6215 54.5952 65.7617 54.787 65.9781C54.9838 66.1946 55.0822 66.4823 55.0822 66.8414C55.0822 67.2842 54.9272 67.6236 54.6173 67.8597C54.3074 68.0958 53.8475 68.2139 53.2375 68.2139H51.0165V63.0488H53.0973C53.6384 63.0488 54.059 63.1619 54.359 63.3882C54.664 63.6145 54.8165 63.9392 54.8165 64.3622C54.8165 64.6623 54.7378 64.9131 54.5804 65.1148C54.423 65.3165 54.2041 65.4641 53.9237 65.5575ZM51.3928 65.4395H53.0899C53.5228 65.4395 53.8548 65.3509 54.086 65.1739C54.3172 64.9968 54.4328 64.741 54.4328 64.4065C54.4328 64.0671 54.3172 63.8088 54.086 63.6317C53.8548 63.4546 53.5228 63.3661 53.0899 63.3661H51.3928V65.4395ZM53.2449 67.8966C54.2188 67.8966 54.7058 67.5375 54.7058 66.8193C54.7058 66.4504 54.5829 66.1798 54.3369 66.0076C54.0909 65.8355 53.7269 65.7494 53.2449 65.7494H51.3928V67.8966H53.2449ZM60.9039 68.2508C60.3973 68.2508 59.9398 68.1376 59.5315 67.9113C59.1232 67.6801 58.801 67.3653 58.5649 66.9669C58.3337 66.5684 58.2181 66.1232 58.2181 65.6313C58.2181 65.1394 58.3337 64.6942 58.5649 64.2958C58.801 63.8973 59.1232 63.585 59.5315 63.3587C59.9398 63.1275 60.3973 63.0119 60.9039 63.0119C61.4106 63.0119 61.8681 63.125 62.2764 63.3513C62.6846 63.5776 63.0044 63.89 63.2356 64.2884C63.4717 64.6869 63.5898 65.1345 63.5898 65.6313C63.5898 66.1282 63.4717 66.5758 63.2356 66.9743C63.0044 67.3727 62.6846 67.6851 62.2764 67.9113C61.8681 68.1376 61.4106 68.2508 60.9039 68.2508ZM60.9039 67.904C61.3368 67.904 61.7279 67.8056 62.0771 67.6088C62.4264 67.4121 62.7019 67.1415 62.9035 66.7972C63.1052 66.4479 63.2061 66.0593 63.2061 65.6313C63.2061 65.2034 63.1052 64.8172 62.9035 64.4729C62.7019 64.1236 62.4264 63.8506 62.0771 63.6538C61.7279 63.4571 61.3368 63.3587 60.9039 63.3587C60.471 63.3587 60.0775 63.4571 59.7233 63.6538C59.3741 63.8506 59.0986 64.1236 58.8969 64.4729C58.6952 64.8172 58.5944 65.2034 58.5944 65.6313C58.5944 66.0593 58.6952 66.4479 58.8969 66.7972C59.0986 67.1415 59.3741 67.4121 59.7233 67.6088C60.0775 67.8056 60.471 67.904 60.9039 67.904ZM77.0426 63.0488C77.6919 63.0488 78.2011 63.2038 78.57 63.5137C78.9389 63.8186 79.1234 64.2441 79.1234 64.7902C79.1234 65.3313 78.9389 65.7568 78.57 66.0667C78.2011 66.3717 77.6919 66.5242 77.0426 66.5242H75.5669V68.2139H75.1906V63.0488H77.0426ZM77.0426 66.1847C77.5936 66.1847 78.0141 66.0642 78.3044 65.8232C78.5946 65.5821 78.7397 65.2378 78.7397 64.7902C78.7397 64.3425 78.5946 63.9982 78.3044 63.7572C78.0141 63.5112 77.5936 63.3882 77.0426 63.3882H75.5669V66.1847H77.0426ZM86.032 67.8744V68.2139H82.4681V63.0488H85.9213V63.3882H82.8444V65.4247H85.5966V65.7568H82.8444V67.8744H86.032ZM91.0445 65.7641H89.8048V68.2139H89.4285V63.0488H89.8048V65.4247H91.0518L92.9039 63.0488H93.3245L91.347 65.5649L93.4573 68.2139H93.0146L91.0445 65.7641ZM98.3707 63.0488C99.02 63.0488 99.5292 63.2038 99.8981 63.5137C100.267 63.8186 100.452 64.2441 100.452 64.7902C100.452 65.3313 100.267 65.7568 99.8981 66.0667C99.5292 66.3717 99.02 66.5242 98.3707 66.5242H96.895V68.2139H96.5187V63.0488H98.3707ZM98.3707 66.1847C98.9217 66.1847 99.3422 66.0642 99.6325 65.8232C99.9227 65.5821 100.068 65.2378 100.068 64.7902C100.068 64.3425 99.9227 63.9982 99.6325 63.7572C99.3422 63.5112 98.9217 63.3882 98.3707 63.3882H96.895V66.1847H98.3707ZM107.592 63.0488L105.208 67.4612C105.056 67.7466 104.874 67.9581 104.662 68.0958C104.456 68.2335 104.234 68.3024 103.998 68.3024C103.816 68.3024 103.619 68.2581 103.408 68.1696L103.526 67.8597C103.693 67.9286 103.851 67.963 103.998 67.963C104.347 67.963 104.638 67.7687 104.869 67.3801L105.046 67.0776L102.928 63.0488H103.341L105.253 66.7234L107.201 63.0488H107.592ZM113.989 63.3882H112.129V68.2139H111.753V63.3882H109.893V63.0488H113.989V63.3882ZM117.133 63.0488H117.51V67.5793L121.029 63.0488H121.361V68.2139H120.985V63.6907L117.465 68.2139H117.133V63.0488ZM129.568 63.0488V68.2139H129.192V65.7568H125.738V68.2139H125.362V63.0488H125.738V65.4247H129.192V63.0488H129.568ZM136.764 63.3882H133.945V68.2139H133.569V63.0488H136.764V63.3882ZM142.206 66.7603H139.21L138.553 68.2139H138.148L140.524 63.0488H140.9L143.276 68.2139H142.87L142.206 66.7603ZM142.066 66.443L140.708 63.462L139.358 66.443H142.066Z" fill="#9D9A97"/>
</svg>
